<svg width="50" height="50" viewBox="0 0 50 50" fill="none" xmlns="http://www.w3.org/2000/svg">
<g clip-path="url(#clip0_5_6)">
<path d="M8.28119 3.94536C10.8254 1.40114 14.2081 0 17.8062 0C20.5566 0 23.2005 0.821977 25.4519 2.37685C25.8346 2.64112 26.0449 2.95229 26.0766 3.30143C26.0961 3.51595 26.054 3.83668 25.7431 4.14773L8.48367 21.4071C8.27933 21.6115 8.02647 21.7195 7.75239 21.7195C7.26429 21.7195 6.89431 21.3762 6.75287 21.1735C3.01197 15.8172 3.65479 8.57176 8.28119 3.94536Z" fill="black"/>
<path d="M27.1832 6.29243C27.5793 5.89627 27.9776 5.81302 28.2419 5.81302C29.0496 5.81302 29.5871 6.54951 29.7326 6.7752C31.3748 9.32227 32.1107 12.3948 31.8047 15.4269C31.7628 15.8422 31.6601 16.248 31.6185 16.6614C31.5973 16.8728 31.8266 17.1441 31.9354 17.2946L41.7553 30.8754C42.5274 31.9432 42.3975 33.5699 41.4658 34.5018L41.1991 34.7686C41.1991 34.7686 41.0344 34.9254 41.2338 35.1395C41.8198 35.7689 43.6661 37.5718 43.6661 37.5718C46.4517 40.3574 46.3221 45.0194 43.3774 47.9642C42.0539 49.2876 40.2709 50.0001 38.3106 50.0001C38.1325 50.0001 37.9529 49.9943 37.7722 49.9824C35.6624 49.8443 33.6376 48.9054 32.0711 47.339L23.984 39.2519C21.3582 36.6262 17.7631 35.6819 16.1787 36.4763L12.0284 38.5573C11.4159 38.8647 10.6703 38.617 10.3632 38.0044C10.056 37.3918 10.3037 36.6463 10.9162 36.3392L15.0665 34.2581C17.8425 32.8662 22.5303 34.289 25.7387 37.4971L33.8259 45.5844C34.9664 46.725 36.4255 47.4075 37.9344 47.5063C39.3822 47.6008 40.692 47.1405 41.6229 46.2096C43.6002 44.2323 43.7296 41.1445 41.9117 39.3265C41.9117 39.3265 40.0948 37.4711 39.4639 36.8786C39.2667 36.6934 39.12 36.8476 39.12 36.8476L38.838 37.1296C38.3307 37.6371 37.6015 37.9281 36.8376 37.9281C36.2429 37.9281 35.6655 37.7473 35.2117 37.4192L21.6309 27.5993C21.2297 27.3259 20.8284 27.3215 20.6221 27.3556C19.8956 27.4756 19.154 27.5373 18.4028 27.5373C18.4028 27.5373 18.4028 27.5373 18.4026 27.5373C15.7292 27.5373 13.1467 26.757 10.9346 25.2808C10.6679 25.1027 10.2002 24.6363 10.139 24.0172C10.099 23.612 10.2402 23.2356 10.5472 22.9285L27.1832 6.29243Z" fill="black"/>
</g>
<defs>
<clipPath id="clip0_5_6">
<rect width="50" height="50" fill="white" transform="matrix(-1 0 0 1 50 0)"/>
</clipPath>
</defs>
</svg>
