<svg width="50" height="50" viewBox="0 0 50 50" fill="none" xmlns="http://www.w3.org/2000/svg">
<path d="M25 1.99805C24.8425 1.99805 24.6841 2.03437 24.5391 2.10938L3.53906 13.1094C3.20906 13.2894 3 13.63 3 14V16H47V14C47 13.63 46.7909 13.2894 46.4609 13.1094L25.4609 2.10938C25.3159 2.03437 25.1575 1.99805 25 1.99805ZM5 18V19.4004C5 20.6504 5.84 21.6697 7 21.9297V38H15V21.9297C16.16 21.6697 17 20.6504 17 19.4004V18H5ZM19 18V19.4004C19 20.6504 19.84 21.6697 21 21.9297V38H29V21.9297C30.16 21.6697 31 20.6504 31 19.4004V18H19ZM33 18V19.4004C33 20.6504 33.84 21.6697 35 21.9297V38H43V21.9297C44.16 21.6697 45 20.6504 45 19.4004V18H33ZM4 40C3.56 40 3.0707 40.1592 2.7207 40.4492C2.2607 40.8392 2 41.4193 2 42.0293V44.7793C2 46.0193 2.91961 47 4.09961 47H45.8008C46.9608 47 47.9004 46.0509 47.9004 44.8809V42.1309C47.9004 40.9609 46.9608 40.0098 45.8008 40.0098C45.8008 40.0098 4.08 40 4 40Z" fill="black"/>
</svg>
