<svg width="60" height="60" viewBox="0 0 60 60" fill="none" xmlns="http://www.w3.org/2000/svg">
<path fill-rule="evenodd" clip-rule="evenodd" d="M22.5 13.125C17.5831 13.125 13.125 17.8802 13.125 24.375C13.125 30.0303 16.5051 34.3668 20.625 35.3932V27.2535L15.835 24.0601L17.9151 20.9399L21.98 23.6499L24.6899 19.585L27.81 21.6651L24.375 26.8178V35.3932C28.495 34.3668 31.875 30.0303 31.875 24.375C31.875 17.8802 27.417 13.125 22.5 13.125ZM9.375 24.375C9.375 31.6962 14.0748 38.176 20.625 39.2265V48.75H7.5V52.5H52.5V48.75H46.875V45L45 43.125H30L28.125 45V48.75H24.375V39.2265C30.9252 38.176 35.625 31.6962 35.625 24.375C35.625 16.3723 30.0095 9.375 22.5 9.375C14.9905 9.375 9.375 16.3723 9.375 24.375ZM31.875 48.75H43.125V46.875H31.875V48.75Z" fill="black"/>
</svg>
