<svg width="50" height="50" viewBox="0 0 50 50" fill="none" xmlns="http://www.w3.org/2000/svg">
<g clip-path="url(#clip0_7_92)">
<path d="M39.7266 8.82812C38.3203 10.8203 35.5859 11.2891 33.5938 9.92187C31.6016 8.55469 31.1328 5.78125 32.5 3.78906C33.9062 1.79687 36.6406 1.32812 38.6328 2.69531C40.625 4.0625 41.1328 6.83594 39.7266 8.82812ZM49.6484 13.7109L44.4922 21.1328C43.9063 22.0312 42.6953 22.2266 41.7969 21.6406L34.375 16.4844L26.4453 28.2422L33.2031 32.9687C33.7891 33.3594 34.2578 34.0234 34.375 34.7266L36.2891 45.5469C36.5234 47.0313 35.5078 48.4766 34.0234 48.75C32.5391 48.9844 31.0938 47.9688 30.8203 46.4844L29.1016 36.7578L20.5859 30.7031C20.5859 30.7031 16.0938 37.1875 15.7812 37.5781C15.4687 37.9688 15.1953 38.5156 14.6875 38.7891C14.0234 39.1797 13.2422 39.2188 12.5781 39.0625L1.95312 36.2109C0.507812 35.8203 -0.351564 34.3359 0.0390613 32.8516C0.429686 31.4063 1.91406 30.5469 3.39844 30.9375L12.1094 33.2422L26.0156 13.0469H20.6641L16.0938 19.6094C15.5078 20.5078 14.2969 20.7031 13.3984 20.1172C12.5 19.5312 12.3047 18.3203 12.8906 17.4219L18.0469 10.0391C18.4375 9.45312 19.1016 9.14062 19.7656 9.21875H28.6719C30 9.21875 31.3281 9.60937 32.4609 10.4297L35.3125 12.4609L42.3438 17.4219L46.4844 11.5625C47.0703 10.6641 48.2813 10.4688 49.1797 11.0547C50.0781 11.6406 50.2734 12.8906 49.6484 13.7109Z" fill="black"/>
</g>
<defs>
<clipPath id="clip0_7_92">
<rect width="50" height="50" fill="white"/>
</clipPath>
</defs>
</svg>
