<svg width="50" height="38" viewBox="0 0 50 38" fill="none" xmlns="http://www.w3.org/2000/svg">
<path d="M48.4375 0.25H1.5625C0.625 0.25 0 0.875 0 1.8125V36.1875C0 37.125 0.625 37.75 1.5625 37.75H48.4375C49.375 37.75 50 37.125 50 36.1875V1.8125C50 0.875 49.375 0.25 48.4375 0.25ZM15.625 29.9375V34.625H10.9375V29.9375H15.625ZM18.75 29.9375H23.4375V34.625H18.75V29.9375ZM26.5625 29.9375H31.25V34.625H26.5625V29.9375ZM34.375 29.9375H39.0625V34.625H34.375V29.9375ZM34.375 8.0625V3.375H39.0625V8.0625H34.375ZM31.25 8.0625H26.5625V3.375H31.25V8.0625ZM23.4375 8.0625H18.75V3.375H23.4375V8.0625ZM15.625 8.0625H10.9375V3.375H15.625V8.0625ZM46.875 8.0625H42.1875V3.375H46.875V8.0625ZM7.8125 3.375V8.0625H3.125V3.375H7.8125ZM3.125 29.9375H7.8125V34.625H3.125V29.9375ZM42.1875 34.625V29.9375H46.875V34.625H42.1875Z" fill="black"/>
</svg>
